<svg width="24" height="24" viewBox="0 0 24 24" fill="none" xmlns="http://www.w3.org/2000/svg">
<mask id="mask0_481_86396" style="mask-type:alpha" maskUnits="userSpaceOnUse" x="2" y="2" width="20" height="20">
<rect x="2" y="2" width="20" height="20" fill="#D9D9D9"/>
</mask>
<g mask="url(#mask0_481_86396)">
<path d="M16 15.7115C17.0207 15.7115 17.8944 15.3481 18.6213 14.6213C19.3481 13.8944 19.7115 13.0207 19.7115 12C19.7115 10.9793 19.3481 10.1056 18.6213 9.37876C17.8944 8.65193 17.0207 8.28851 16 8.28851C14.9793 8.28851 14.1056 8.65193 13.3788 9.37876C12.6519 10.1056 12.2885 10.9793 12.2885 12C12.2885 13.0207 12.6519 13.8944 13.3788 14.6213C14.1056 15.3481 14.9793 15.7115 16 15.7115ZM16 17.2115C14.6732 17.2115 13.5261 16.7862 12.5588 15.9355C11.5914 15.0848 11.0199 14.023 10.8443 12.75H2.53851V11.25H10.8443C11.0199 9.97701 11.5914 8.91518 12.5588 8.06451C13.5261 7.21385 14.6732 6.78851 16 6.78851C17.4477 6.78851 18.6782 7.29526 19.6915 8.30876C20.7048 9.32243 21.2115 10.5533 21.2115 12.0013C21.2115 13.4491 20.7048 14.6794 19.6915 15.6923C18.6782 16.7051 17.4477 17.2115 16 17.2115Z" fill="#AAABB1"/>
</g>
</svg>
