<svg width="24" height="24" viewBox="0 0 24 24" fill="none" xmlns="http://www.w3.org/2000/svg">
<mask id="mask0_482_86440" style="mask-type:alpha" maskUnits="userSpaceOnUse" x="2" y="2" width="20" height="20">
<rect x="2" y="2" width="20" height="20" fill="#D9D9D9"/>
</mask>
<g mask="url(#mask0_482_86440)">
<path d="M18.3301 4.91211C18.4628 5.0305 18.5945 5.1512 18.7207 5.27734C19.5758 6.13214 20.253 7.13834 20.752 8.29395C21.2507 9.44956 21.5 10.6853 21.5 11.999C21.4999 13.3126 21.2504 14.5473 20.752 15.7031C20.2533 16.8593 19.5765 17.8656 18.7217 18.7207C17.867 19.5757 16.8615 20.253 15.7061 20.752C14.5505 21.2507 13.3156 21.5 12.002 21.5C10.6881 21.5 9.45291 21.2505 8.29688 20.752C7.61564 20.4581 6.98787 20.1001 6.41113 19.6826L6.71582 19.376L6.71094 19.3711L10.2441 15.8379L11.3145 16.9082L8.83594 19.3857C9.80098 19.7938 10.855 20 12 20C14.2331 19.9999 16.1249 19.2246 17.6748 17.6748C19.2246 16.1249 20 14.2331 20 12C20 9.76673 19.2248 7.87418 17.6748 6.32422C17.5473 6.19677 17.4163 6.07595 17.2842 5.95898L18.3301 4.91211ZM11.998 2.5C13.312 2.5 14.5479 2.74938 15.7041 3.24805C16.0409 3.39332 16.3636 3.55596 16.6748 3.73145L16.2432 4.16211L16.2441 4.16309L12.7041 7.7041L11.6338 6.63379L14.0273 4.23926C13.3861 4.08191 12.7107 4.00002 12 4C9.76693 4.00007 7.87507 4.77544 6.3252 6.3252C4.7754 7.87511 4.00003 9.76686 4 12C4.00003 14.0493 4.65483 15.8093 5.95996 17.2832L4.91309 18.3301C4.22969 17.564 3.67308 16.6903 3.24805 15.7061C2.74937 14.5506 2.50006 13.3155 2.5 12.002C2.50003 10.6881 2.74941 9.45199 3.24805 8.2959C3.74663 7.14011 4.42378 6.13524 5.27832 5.28027C6.13312 4.42514 7.13833 3.74704 8.29395 3.24805C9.44951 2.74928 10.6843 2.50002 11.998 2.5Z" fill="#AAABB1"/>
</g>
</svg>
