<svg width="24" height="24" viewBox="0 0 24 24" fill="none" xmlns="http://www.w3.org/2000/svg">
<mask id="mask0_481_86397" style="mask-type:alpha" maskUnits="userSpaceOnUse" x="2" y="2" width="20" height="20">
<rect x="2" y="2" width="20" height="20" fill="#D9D9D9"/>
</mask>
<g mask="url(#mask0_481_86397)">
<path d="M7.17473 21.4902C6.43006 21.4902 5.79648 21.2304 5.27398 20.7108C4.75165 20.1909 4.49048 19.5597 4.49048 18.8173C4.49048 18.2121 4.67315 17.672 5.03848 17.197C5.40381 16.722 5.86531 16.407 6.42298 16.252V7.748C5.86531 7.593 5.40381 7.278 5.03848 6.803C4.67315 6.328 4.49048 5.78792 4.49048 5.18275C4.49048 4.43758 4.75106 3.80417 5.27223 3.2825C5.79356 2.76083 6.42664 2.5 7.17148 2.5C7.91615 2.5 8.54965 2.76083 9.07198 3.2825C9.59448 3.80417 9.85573 4.43758 9.85573 5.18275C9.85573 5.78792 9.67465 6.328 9.31248 6.803C8.95031 7.278 8.48715 7.593 7.92298 7.748V8.10575C7.92298 8.97925 8.2259 9.72167 8.83173 10.333C9.43756 10.9443 10.1731 11.25 11.0385 11.25H12.9615C14.2358 11.25 15.322 11.7019 16.22 12.6058C17.1181 13.5094 17.5672 14.6023 17.5672 15.8845V16.252C18.1314 16.407 18.5961 16.7204 18.9615 17.1923C19.3268 17.6641 19.5095 18.2026 19.5095 18.8078C19.5095 19.5529 19.2466 20.1863 18.721 20.708C18.1955 21.2295 17.5613 21.4902 16.8185 21.4902C16.0756 21.4902 15.4442 21.2295 14.9242 20.708C14.4042 20.1863 14.1442 19.5529 14.1442 18.8078C14.1442 18.2026 14.3253 17.6641 14.6875 17.1923C15.0496 16.7204 15.5096 16.407 16.0672 16.252V15.8845C16.0672 15.0192 15.7653 14.2804 15.1615 13.6683C14.5575 13.0561 13.8241 12.75 12.9615 12.75H11.0385C10.4205 12.75 9.84615 12.6337 9.31548 12.401C8.78465 12.1683 8.32048 11.852 7.92298 11.452V16.252C8.48715 16.407 8.95031 16.7204 9.31248 17.1923C9.67465 17.6641 9.85573 18.2026 9.85573 18.8078C9.85573 19.5529 9.59506 20.1863 9.07373 20.708C8.5524 21.2295 7.9194 21.4902 7.17473 21.4902ZM7.17798 20C7.50931 20 7.78848 19.8867 8.01548 19.66C8.24231 19.4335 8.35573 19.1528 8.35573 18.8178C8.35573 18.4828 8.2424 18.2018 8.01573 17.975C7.78906 17.748 7.50815 17.6345 7.17298 17.6345C6.84481 17.6345 6.56565 17.7496 6.33548 17.9798C6.10548 18.2099 5.99048 18.4891 5.99048 18.8173C5.99048 19.1454 6.10548 19.4246 6.33548 19.6548C6.56565 19.8849 6.84648 20 7.17798 20ZM16.822 20C17.1535 20 17.4326 19.8867 17.6595 19.66C17.8865 19.4335 18 19.1528 18 18.8178C18 18.4828 17.8866 18.2018 17.66 17.975C17.4333 17.748 17.1524 17.6345 16.8172 17.6345C16.4891 17.6345 16.2099 17.7496 15.9797 17.9798C15.7496 18.2099 15.6345 18.4891 15.6345 18.8173C15.6345 19.1454 15.7496 19.4246 15.9797 19.6548C16.2099 19.8849 16.4906 20 16.822 20ZM7.17798 6.3655C7.50931 6.3655 7.78848 6.25217 8.01548 6.0255C8.24231 5.799 8.35573 5.51825 8.35573 5.18325C8.35573 4.84825 8.2424 4.56733 8.01573 4.3405C7.78906 4.1135 7.50815 4 7.17298 4C6.84481 4 6.56565 4.11508 6.33548 4.34525C6.10548 4.57542 5.99048 4.85458 5.99048 5.18275C5.99048 5.51092 6.10548 5.79008 6.33548 6.02025C6.56565 6.25042 6.84648 6.3655 7.17798 6.3655Z" fill="#AAABB1"/>
</g>
</svg>
