<svg width="24" height="24" viewBox="0 0 24 24" fill="none" xmlns="http://www.w3.org/2000/svg">
<mask id="mask0_481_86401" style="mask-type:alpha" maskUnits="userSpaceOnUse" x="2" y="2" width="20" height="20">
<rect x="2" y="2" width="20" height="20" fill="#D9D9D9"/>
</mask>
<g mask="url(#mask0_481_86401)">
<path d="M5.00001 20.5C4.36217 20.5 3.90884 20.2154 3.64001 19.6462C3.37101 19.0769 3.43592 18.5474 3.83476 18.0577L9.50001 11.173V5H8.30776C8.09526 5 7.91709 4.92808 7.77326 4.78425C7.62959 4.64042 7.55776 4.46225 7.55776 4.24975C7.55776 4.03708 7.62959 3.859 7.77326 3.7155C7.91709 3.57183 8.09526 3.5 8.30776 3.5H15.6923C15.9048 3.5 16.0829 3.57192 16.2268 3.71575C16.3704 3.85958 16.4423 4.03775 16.4423 4.25025C16.4423 4.46292 16.3704 4.641 16.2268 4.7845C16.0829 4.92817 15.9048 5 15.6923 5H14.5V11.173L20.1653 18.0577C20.5641 18.5474 20.629 19.0769 20.36 19.6462C20.0912 20.2154 19.6378 20.5 19 20.5H5.00001ZM7.00001 18H17L13.6 14H10.4L7.00001 18ZM5.00001 19H19L13 11.7V5H11V11.7L5.00001 19Z" fill="#AAABB1"/>
</g>
</svg>
