<svg width="24" height="24" viewBox="0 0 24 24" fill="none" xmlns="http://www.w3.org/2000/svg">
<mask id="mask0_481_86400" style="mask-type:alpha" maskUnits="userSpaceOnUse" x="2" y="2" width="20" height="20">
<rect x="2" y="2" width="20" height="20" fill="#D9D9D9"/>
</mask>
<g mask="url(#mask0_481_86400)">
<path d="M11.998 2.5C13.3119 2.5 14.547 2.74947 15.7031 3.24805C16.8593 3.74671 17.8655 4.42349 18.7207 5.27832C19.5758 6.13312 20.253 7.13834 20.752 8.29395C21.2508 9.44954 21.5 10.6843 21.5 11.998C21.5 13.3119 21.2505 14.547 20.752 15.7031C20.2533 16.8593 19.5765 17.8655 18.7217 18.7207C17.8669 19.5758 16.8617 20.253 15.7061 20.752C14.5505 21.2508 13.3157 21.5 12.002 21.5C10.6881 21.5 9.45296 21.2505 8.29688 20.752C7.14071 20.2533 6.13446 19.5765 5.2793 18.7217C4.42419 17.8669 3.74702 16.8617 3.24805 15.7061C2.74925 14.5505 2.50003 13.3157 2.5 12.002C2.5 10.6881 2.74947 9.45296 3.24805 8.29688C3.74671 7.14071 4.42349 6.13446 5.27832 5.2793C6.13312 4.42419 7.13834 3.74702 8.29395 3.24805C9.44954 2.74925 10.6843 2.50003 11.998 2.5ZM5.59961 16.8496C5.8192 17.1344 6.06036 17.41 6.3252 17.6748C7.8752 19.2248 9.76667 20 12 20C14.2333 20 16.1248 19.2248 17.6748 17.6748C17.9395 17.4101 18.1799 17.1342 18.3994 16.8496L12 13.1543L5.59961 16.8496ZM11 4.05664C9.19656 4.25736 7.63825 5.01214 6.3252 6.3252C4.7752 7.8752 4 9.76667 4 12C4 13.1275 4.19774 14.1678 4.59277 15.1211L11 11.4219V4.05664ZM13 11.4219L19.4062 15.1211C19.8014 14.1677 20 13.1276 20 12C20 9.76667 19.2248 7.8752 17.6748 6.3252C16.3617 5.01214 14.8034 4.25736 13 4.05664V11.4219Z" fill="#AAABB1"/>
</g>
</svg>
