<svg width="168" height="32" viewBox="0 0 168 32" fill="none" xmlns="http://www.w3.org/2000/svg">
<path d="M4.20898 4.19531C7.55811 7.5395 9.44043 12.0754 9.44043 16.8047C9.44036 21.534 7.55796 26.069 4.20898 29.4131L0 25.21C2.2326 22.9807 3.48721 19.9573 3.4873 16.8047C3.4873 13.6519 2.23277 10.6279 0 8.39844C1.40309 6.99754 2.80589 5.5963 4.20898 4.19531ZM16.8389 8.39844C17.241 8.80014 17.6429 9.20199 18.0449 9.60352C18.9382 10.4953 19.4404 11.7046 19.4404 12.9658V20.6436C19.4403 21.9045 18.9381 23.114 18.0449 24.0059C17.643 24.4072 17.2409 24.8086 16.8389 25.21C15.4357 26.611 14.0321 28.012 12.6289 29.4131C11.226 28.0122 9.82287 26.6109 8.41992 25.21C9.8228 23.8092 11.226 22.4086 12.6289 21.0078C13.7515 19.887 14.8746 18.7662 15.9971 17.6455C16.4621 17.1812 16.462 16.4281 15.9971 15.9639C14.8745 14.8431 13.7515 13.7223 12.6289 12.6016C11.2259 11.2006 9.82295 9.79945 8.41992 8.39844C9.82293 6.99753 11.2259 5.59631 12.6289 4.19531C14.0321 5.59637 15.4357 6.99748 16.8389 8.39844ZM86.2637 9.14551C90.03 9.14551 92.8291 10.5178 92.8291 14.0244H89.3682C89.1647 12.7031 88.096 12.042 86.2637 12.042C84.3808 12.042 83.4651 12.6011 83.4648 13.6172C83.4648 14.3794 84.0753 14.8377 85.3477 15.0918C86.3655 15.2781 87.3835 15.4641 88.4014 15.6504C91.455 16.2093 93.1855 17.1241 93.1855 19.9189C93.1855 23.5271 89.7755 24.4931 86.1621 24.4932C82.2431 24.4932 79.2911 23.07 79.291 19.4619H82.8027C82.9045 20.8339 84.1262 21.5449 86.2637 21.5449C88.3504 21.5449 89.3682 20.9861 89.3682 19.9189C89.3681 18.9027 88.1975 18.6485 87.1797 18.4453C85.9752 18.2081 84.7709 17.9705 83.5664 17.7334C80.8689 17.2252 79.749 15.4976 79.749 13.5664C79.7492 10.4159 82.5993 9.14551 86.2637 9.14551ZM107.131 9.14551C110.846 9.14551 113.849 10.9241 114.409 15.0508H110.693C110.184 13.3127 108.963 12.4482 107.131 12.4482C104.637 12.4484 103.009 14.3293 103.009 16.8193C103.009 19.2585 104.688 21.1386 107.131 21.1387C109.014 21.1387 110.184 20.2749 110.693 18.5576H114.409C113.849 22.7651 110.744 24.4932 107.131 24.4932C102.398 24.4931 99.1407 21.2912 99.1406 16.8193C99.1406 12.8555 101.838 9.14561 107.131 9.14551ZM121.943 9.14551C125.71 9.14553 128.509 10.5178 128.509 14.0244H125.048C124.844 12.7031 123.775 12.042 121.943 12.042C120.061 12.042 119.145 12.6011 119.145 13.6172C119.145 14.3794 119.755 14.8377 121.027 15.0918C122.045 15.2781 123.063 15.4641 124.081 15.6504C127.135 16.2093 128.865 17.1241 128.865 19.9189C128.865 23.5271 125.455 24.4931 121.842 24.4932C117.923 24.4932 114.971 23.07 114.971 19.4619H118.482C118.584 20.8339 119.806 21.5449 121.943 21.5449C124.03 21.5449 125.048 20.9861 125.048 19.9189C125.048 18.9027 123.877 18.6485 122.859 18.4453C121.655 18.2081 120.451 17.9705 119.246 17.7334C116.549 17.2252 115.429 15.4976 115.429 13.5664C115.429 10.4159 118.279 9.14551 121.943 9.14551ZM42.5928 9.60254C46.3079 9.60261 48.5977 11.1781 48.5977 14.9893C48.5976 18.8004 46.3078 20.3759 42.5928 20.376H38.623V24.0049H34.7539V9.60254H42.5928ZM98.1201 24.0049H94.252V9.60254H98.1201V24.0049ZM53.4893 15.2012H60.1055V9.60156H63.9736V24.0039H60.1055V18.4043H53.4893V24.0039H49.6211V9.60156H53.4893V15.2012ZM72.4199 15.5479L76.085 9.60156H80.3086L74.3545 19.1045V24.0039H70.4863V19.0537L64.5312 9.60156H68.7559L72.4199 15.5479ZM140.365 14.335L143.571 9.60156H147.999L142.808 16.8027L147.999 24.0039H143.571L140.365 19.373L137.107 24.0039H132.68L137.922 16.8027L132.68 9.60156H137.107L140.365 14.335ZM38.623 17.1738H42.2871C43.5085 17.1738 44.7304 16.6661 44.7305 14.9893C44.7305 13.4139 43.6612 12.8037 42.2871 12.8037H38.623V17.1738Z" fill="white"/>
</svg>
